<?xml version="1.0" encoding="UTF-8" standalone="no"?>
<svg
   xmlns:dc="http://purl.org/dc/elements/1.1/"
   xmlns:cc="http://creativecommons.org/ns#"
   xmlns:rdf="http://www.w3.org/1999/02/22-rdf-syntax-ns#"
   xmlns:svg="http://www.w3.org/2000/svg"
   xmlns="http://www.w3.org/2000/svg"
   xmlns:sodipodi="http://sodipodi.sourceforge.net/DTD/sodipodi-0.dtd"
   xmlns:inkscape="http://www.inkscape.org/namespaces/inkscape"
   inkscape:export-ydpi="876.29999"
   inkscape:export-xdpi="876.29999"
   inkscape:export-filename="D:\Documents\yrs-presentation-and-eng\cruze\cruze.png"
   width="120mm"
   height="30mm"
   viewBox="0 0 120 30"
   version="1.1"
   id="svg8"
   inkscape:version="1.0 (4035a4fb49, 2020-05-01)"
   sodipodi:docname="cruze.svg">
  <defs
     id="defs2" />
  <sodipodi:namedview
     id="base"
     pagecolor="#2a2a27"
     bordercolor="#ffffff"
     borderopacity="1"
     inkscape:pageopacity="0"
     inkscape:pageshadow="2"
     inkscape:zoom="1.28"
     inkscape:cx="342.61638"
     inkscape:cy="237.43097"
     inkscape:document-units="mm"
     inkscape:current-layer="layer1"
     inkscape:document-rotation="0"
     showgrid="false"
     inkscape:window-width="1920"
     inkscape:window-height="1009"
     inkscape:window-x="-8"
     inkscape:window-y="-8"
     inkscape:window-maximized="1"
     showborder="true"
     borderlayer="true"
     inkscape:showpageshadow="false" />
  <metadata
     id="metadata5">
    <rdf:RDF>
      <cc:Work
         rdf:about="">
        <dc:format>image/svg+xml</dc:format>
        <dc:type
           rdf:resource="http://purl.org/dc/dcmitype/StillImage" />
        <dc:title></dc:title>
      </cc:Work>
    </rdf:RDF>
  </metadata>
  <g
     transform="translate(0,-267)"
     inkscape:label="cruze"
     inkscape:groupmode="layer"
     id="layer1">
    <g
       id="g884"
       transform="matrix(2.4373664,0,0,2.4373664,-116.3476,-102.15008)"
       style="stroke-width:0.410279">
      <path
         sodipodi:nodetypes="ssssscssssssccsss"
         d="m 49.786359,161.2034 c 0,0.0688 0.04428,0.10315 0.132846,0.10315 h 1.660584 c 0.08857,0 0.132847,-0.0344 0.132847,-0.10315 v -5.69446 c 0,-0.18568 0.04428,-0.32666 0.132847,-0.42292 0.09742,-0.10316 0.265693,-0.15473 0.504817,-0.15473 h 4.011968 c 0.08857,0 0.132847,-0.0344 0.132847,-0.10314 v -0.81427 c 0,-0.0688 -0.04428,-0.10316 -0.132847,-0.10316 h -4.649632 c -0.274551,0 -0.531388,0.0309 -0.770511,0.0928 -0.230268,0.0551 -0.433966,0.14099 -0.611095,0.25787 -0.168272,0.11003 -0.301119,0.251 -0.39854,0.42292 -0.09742,0.17192 -0.146131,0.37477 -0.146131,0.60858 z"
         style="font-size:11.8573px;line-height:1.25;font-family:'Prototype [RUS by Daymarius]';-inkscape-font-specification:'Prototype [RUS by Daymarius]';letter-spacing:0px;word-spacing:0px;fill:#ffffff;fill-opacity:1;stroke:none;stroke-width:0.108553"
         id="path845" />
      <path
         sodipodi:nodetypes="cssssssscssssscssscscscscscssssss"
         d="m 57.333847,154.12735 v 7.07605 c 0,0.0688 0.04428,0.10315 0.132846,0.10315 h 1.660584 c 0.08857,0 0.132847,-0.0344 0.132847,-0.10315 v -2.36212 c 0,-0.0687 0.04428,-0.10315 0.132847,-0.10315 h 2.311532 c 0.495961,0 0.916642,-0.0551 1.262043,-0.16505 0.345401,-0.1169 0.624379,-0.28193 0.836934,-0.49512 0.212555,-0.21316 0.367543,-0.4676 0.464964,-0.7633 0.09742,-0.2957 0.146131,-0.62577 0.146131,-0.99024 0,-0.35071 -0.04871,-0.71344 -0.146131,-1.00914 -0.09742,-0.29569 -0.252409,-0.51061 -0.464964,-0.72377 -0.212555,-0.21317 -0.491533,-0.37821 -0.836934,-0.49512 -0.345401,-0.12378 -0.766082,-0.18567 -1.262043,-0.18567 h -4.23781 c -0.08856,0 -0.132846,0.0344 -0.132846,0.10316 z m 4.596495,0.80394 c 0.159416,0 0.283406,0.0447 0.37197,0.1341 0.09742,0.0826 0.168273,0.18222 0.212555,0.29913 0.04429,0.1169 0.07085,0.23724 0.0797,0.36102 0.01772,0.1169 0.02658,0.20973 0.02658,0.27851 0,0.0687 -0.0089,0.69641 -0.02658,0.82019 -0.0089,0.11691 -0.03543,0.2338 -0.0797,0.35071 -0.04429,0.11691 -0.115138,0.22006 -0.212555,0.30945 -0.08856,0.0826 -0.212554,0.12378 -0.37197,0.12378 h -2.537371 c -0.08857,0 -0.132847,-0.0344 -0.132847,-0.10314 v -2.4706 c 0,-0.0688 0.04428,-0.10315 0.132847,-0.10315 z"
         style="font-size:11.8573px;line-height:1.25;font-family:'Prototype [RUS by Daymarius]';-inkscape-font-specification:'Prototype [RUS by Daymarius]';letter-spacing:0px;word-spacing:0px;fill:#ffffff;fill-opacity:1;stroke:none;stroke-width:0.108553"
         id="path847" />
      <path
         sodipodi:nodetypes="ccccssssssccccccssccssccsscccccc"
         d="m 68.055569,159.215 c -0.04202,0.0745 -0.105041,0.15568 -0.189064,0.24368 -0.07563,0.088 -0.159653,0.1726 -0.252084,0.25383 -0.08403,0.0745 -0.180661,0.13875 -0.289898,0.1929 -0.100834,0.0542 -0.201668,0.0813 -0.302502,0.0813 h -1.184798 c -0.08403,0 -0.126043,0.0338 -0.126043,0.10153 v 1.11684 c 0,0.0677 0.04201,0.10154 0.126043,0.10154 h 1.449487 c 0.672227,0 1.193202,-0.18275 1.562926,-0.54828 0.487363,-0.35197 0.907504,-0.90363 1.260423,-1.65496 l 0.151251,-0.31474 0.189064,-0.40613 2.20574,-4.21356 c 0.0168,-0.0338 0.0168,-0.0643 0,-0.0913 -0.0084,-0.0338 -0.04202,-0.0508 -0.100836,-0.0508 h -1.701571 c -0.09243,0 -0.163855,0.0474 -0.214272,0.14214 l -1.726781,3.10687 c -0.03361,0.0338 -0.06302,0.0609 -0.08823,0.0813 -0.0168,0.0135 -0.05461,0.0204 -0.113437,0.0204 -0.09243,0 -0.159654,-0.0338 -0.201668,-0.10153 l -1.789801,-3.12716 c -0.04202,-0.0813 -0.113444,-0.12185 -0.214273,-0.12185 h -1.739384 c -0.109237,0 -0.130247,0.0508 -0.06303,0.1523 l 2.420014,4.2034 c 0.09243,0.1286 0.201668,0.22337 0.327711,0.28429 0.134444,0.0609 0.411737,0.10156 0.831878,0.12184 l -0.163854,0.31474 z"
         style="font-size:11.8573px;line-height:1.25;font-family:'Prototype [RUS by Daymarius]';-inkscape-font-specification:'Prototype [RUS by Daymarius]';letter-spacing:0px;word-spacing:0px;fill:#ffffff;fill-opacity:1;stroke:none;stroke-width:0.108553"
         id="path849" />
      <path
         sodipodi:nodetypes="scccccssssscccsccsssssscccss"
         d="m 72.811348,159.09915 c 0,0.18567 0.02214,0.34383 0.06643,0.47448 0.04429,0.12378 0.08857,0.2235 0.132847,0.29914 0.168272,0.30257 0.385255,0.56388 0.650948,0.78394 0.265693,0.21317 0.566813,0.3679 0.903358,0.46416 0.150559,0.0481 0.327688,0.0929 0.531387,0.1341 0.203698,0.0344 0.438394,0.0516 0.704087,0.0516 h 3.400874 c 0.08857,0 0.132847,-0.0344 0.132847,-0.10315 v -0.87596 c 0,-0.0687 -0.04428,-0.10314 -0.132847,-0.10314 h -3.440728 c -0.309976,-0.0207 -0.553528,-0.0998 -0.730657,-0.23725 -0.168273,-0.1444 -0.265693,-0.33695 -0.292262,-0.57763 v -3.18876 c 0,-0.35759 0.08414,-0.6464 0.252408,-0.86645 0.168273,-0.22694 0.42511,-0.36791 0.770511,-0.42292 h 3.440728 c 0.08857,0 0.132847,-0.0344 0.132847,-0.10314 v -0.81427 c 0,-0.0688 -0.04428,-0.10316 -0.132847,-0.10316 h -3.520436 c -0.433966,0 -0.841363,0.0688 -1.22219,0.20631 -0.380827,0.13753 -0.708516,0.33007 -0.983065,0.57764 -0.09742,0.0894 -0.194841,0.1891 -0.292262,0.29913 -0.08856,0.10314 -0.159416,0.23036 -0.212555,0.38165 -0.106278,0.26131 -0.159417,0.53982 -0.159417,0.83551 z"
         style="font-size:11.8573px;line-height:1.25;font-family:'Prototype [RUS by Daymarius]';-inkscape-font-specification:'Prototype [RUS by Daymarius]';letter-spacing:0px;word-spacing:0px;fill:#ffffff;fill-opacity:1;stroke:none;stroke-width:0.108553"
         id="path851" />
      <path
         sodipodi:nodetypes="sssssssssssssssss"
         d="m 84.610416,155.03444 c 0,-0.0688 0.04428,-0.10315 0.132846,-0.10315 h 2.165401 c 0.08857,0 0.132847,-0.0344 0.132847,-0.10314 v -0.81427 c 0,-0.0688 -0.04428,-0.10316 -0.132847,-0.10316 h -6.522771 c -0.08857,0 -0.132847,0.0344 -0.132847,0.10316 v 0.81427 c 0,0.0687 0.04428,0.10314 0.132847,0.10314 h 2.165401 c 0.08856,0 0.132846,0.0344 0.132846,0.10315 v 6.16896 c 0,0.0688 0.04428,0.10315 0.132847,0.10315 h 1.660583 c 0.08857,0 0.132847,-0.0344 0.132847,-0.10315 z"
         style="font-size:11.8573px;line-height:1.25;font-family:'Prototype [RUS by Daymarius]';-inkscape-font-specification:'Prototype [RUS by Daymarius]';letter-spacing:0px;word-spacing:0px;fill:#ffffff;fill-opacity:1;stroke:none;stroke-width:0.108553"
         id="path853" />
      <path
         sodipodi:nodetypes="ssscssssscssssssscsssssscscscscss"
         d="m 87.836309,161.2034 c 0,0.0688 0.04428,0.10315 0.132847,0.10315 h 4.237809 c 0.495961,0 0.916642,-0.0585 1.262043,-0.17536 0.345401,-0.12378 0.624379,-0.29225 0.836934,-0.50544 0.212555,-0.21316 0.367543,-0.4676 0.464964,-0.7633 0.09742,-0.2957 0.146131,-0.61889 0.146131,-0.9696 0,-0.36446 -0.04871,-0.69454 -0.146131,-0.99024 -0.09742,-0.29569 -0.252409,-0.55013 -0.464964,-0.7633 -0.212555,-0.21318 -0.491533,-0.37478 -0.836934,-0.48481 -0.345401,-0.11691 -0.766082,-0.17535 -1.262043,-0.17535 h -2.311532 c -0.08857,0 -0.132847,-0.0344 -0.132847,-0.10315 v -2.36212 c 0,-0.0688 -0.04428,-0.10316 -0.132846,-0.10316 h -1.660584 c -0.08857,0 -0.132847,0.0344 -0.132847,0.10316 v 7.07605 z m 2.059124,-0.95178 c -0.08857,0 -0.132847,-0.0344 -0.132847,-0.10316 v -2.52386 c 0,-0.0687 0.04428,-0.10315 0.132847,-0.10315 h 2.537371 c 0.159416,0 0.283406,0.0447 0.37197,0.13409 0.09742,0.0826 0.168273,0.18223 0.212555,0.29914 0.04429,0.11691 0.07085,0.23725 0.0797,0.36103 0.01771,0.11691 0.02656,0.20974 0.02656,0.2785 0,0.0687 -0.0089,0.74969 -0.02656,0.87347 -0.0089,0.11691 -0.03543,0.23381 -0.0797,0.35071 -0.04429,0.1169 -0.115138,0.22004 -0.212555,0.30945 -0.08856,0.0826 -0.212554,0.12378 -0.37197,0.12378 z"
         style="font-size:11.8573px;line-height:1.25;font-family:'Prototype [RUS by Daymarius]';-inkscape-font-specification:'Prototype [RUS by Daymarius]';letter-spacing:0px;word-spacing:0px;fill:#ffffff;fill-opacity:1;stroke:none;stroke-width:0.108553"
         id="path855" />
    </g>
  </g>
</svg>
